<svg xmlns="http://www.w3.org/2000/svg" viewBox="0 0 479.06 285.75"><title>peace_4</title><path d="M290.51,18.17h0a13.61,13.61,0,0,0-16.91,9.06l-20,66.15-16.2-80a13.61,13.61,0,0,0-16-10.6h0a13.6,13.6,0,0,0-10.6,16L228.5,106l20.78,1.72,7.37.61L276.93,110l22.64-74.94A13.61,13.61,0,0,0,290.51,18.17Z" style="fill:#fff;stroke:#6d6e71;stroke-miterlimit:10;stroke-width:5px"/><path d="M291,126.46l-7.84-13-67.42-6.93-35.37,2.74-4.62,15a69.14,69.14,0,0,0-.57,8.82c0,34.68,26,62.79,58.07,62.79s58.07-28.11,58.07-62.79C291.32,130.82,291.21,128.62,291,126.46Z" style="fill:#fff;stroke:#6d6e71;stroke-miterlimit:10;stroke-width:5px"/><rect x="200.13" y="76.75" width="27.55" height="58.25" rx="13.77" transform="translate(-5.06 10.91) rotate(-2.89)" style="fill:#fff;stroke:#6d6e71;stroke-miterlimit:10;stroke-width:5px"/><rect x="174.15" y="86.24" width="26.26" height="51.39" rx="13.13" transform="translate(-5.4 9.57) rotate(-2.89)" style="fill:#fff;stroke:#6d6e71;stroke-miterlimit:10;stroke-width:5px"/><path d="M291.05,127.05s-.79-7.68-8.37-16.92a11.73,11.73,0,0,0-6.07-3.86L235.89,95.43a11.92,11.92,0,0,0-14.79,9.34h0a11.91,11.91,0,0,0,8.79,13.73l26.75,6.79a11.92,11.92,0,0,1,7.91,16.51L261,149.58" style="fill:#fff;stroke:#6d6e71;stroke-linecap:square;stroke-miterlimit:10;stroke-width:5px"/><path d="M17.65,273.47H9.91V243.42H0V237H27.55v6.44h-9.9Z" style="fill:#6d6e71"/><path d="M58.33,273.47H50.72v-16.3q0-6-4.5-6a5.11,5.11,0,0,0-4.61,2.17q-1.43,2.17-1.43,7v13.13H32.57V234.63h7.61v7.92c0,.61,0,2.06-.17,4.34l-.18,2.24h.4q2.55-4.08,8.09-4.09,4.92,0,7.46,2.65t2.55,7.58Z" style="fill:#6d6e71"/><path d="M83.89,273.47l-1.48-3.79h-.2A11.16,11.16,0,0,1,78.26,273,12.71,12.71,0,0,1,73,274a8.59,8.59,0,0,1-6.33-2.3,8.81,8.81,0,0,1-2.31-6.54c0-3,1-5.14,3.11-6.55s5.19-2.18,9.37-2.33l4.84-.15v-1.22q0-4.24-4.34-4.25a19.9,19.9,0,0,0-7.86,2l-2.52-5.14A22.68,22.68,0,0,1,77.6,245q5.61,0,8.61,2.45c2,1.63,3,4.11,3,7.44v18.59Zm-2.25-12.93-2.94.1a9.52,9.52,0,0,0-5,1.2,3.76,3.76,0,0,0-1.62,3.34q0,3.22,3.7,3.22a5.84,5.84,0,0,0,4.23-1.52,5.35,5.35,0,0,0,1.58-4Z" style="fill:#6d6e71"/><path d="M122.8,273.47h-7.61v-16.3a7.8,7.8,0,0,0-1.08-4.53,3.88,3.88,0,0,0-3.42-1.51,5.11,5.11,0,0,0-4.61,2.14q-1.42,2.13-1.43,7.07v13.13H97v-27.9h5.82l1,3.56h.42a8.09,8.09,0,0,1,3.51-3,12,12,0,0,1,5.08-1c3.24,0,5.71.88,7.39,2.63s2.52,4.29,2.52,7.6Z" style="fill:#6d6e71"/><path d="M138,258.3l3.32-4.25,7.81-8.48h8.59l-11.09,12.1,11.76,15.8h-8.78l-8-11.31-3.27,2.62v8.69h-7.61V234.63h7.61V252l-.4,6.34Z" style="fill:#6d6e71"/><path d="M181.8,265.18a7.67,7.67,0,0,1-3,6.54q-3,2.25-8.92,2.25a28.42,28.42,0,0,1-5.19-.41,19.82,19.82,0,0,1-4-1.21v-6.29a26.7,26.7,0,0,0,4.78,1.67,19.27,19.27,0,0,0,4.68.67q4.14,0,4.14-2.39a2,2,0,0,0-.55-1.46,8,8,0,0,0-1.9-1.28c-.9-.47-2.09-1-3.59-1.66a22.46,22.46,0,0,1-4.73-2.49,7.06,7.06,0,0,1-2.2-2.63,8.83,8.83,0,0,1-.68-3.66,6.62,6.62,0,0,1,2.88-5.75c1.92-1.36,4.65-2,8.17-2a23.13,23.13,0,0,1,9.81,2.2l-2.29,5.49c-1.4-.6-2.71-1.09-3.92-1.47a12.14,12.14,0,0,0-3.72-.58c-2.25,0-3.37.61-3.37,1.82a2.15,2.15,0,0,0,1.08,1.78A29.56,29.56,0,0,0,174,256.5a21.66,21.66,0,0,1,4.79,2.47,7.25,7.25,0,0,1,2.25,2.64A8.18,8.18,0,0,1,181.8,265.18Z" style="fill:#6d6e71"/><path d="M216.45,251.28h-6.59v22.19h-7.62V251.28h-4.19v-3.67l4.19-2v-2c0-3.18.79-5.5,2.35-7s4.07-2.2,7.51-2.2a19.64,19.64,0,0,1,7,1.17l-2,5.59a14.28,14.28,0,0,0-4.24-.72,2.74,2.74,0,0,0-2.35,1,4,4,0,0,0-.72,2.46v1.75h6.59Z" style="fill:#6d6e71"/><path d="M246.17,259.47q0,6.81-3.59,10.66t-10,3.84a14,14,0,0,1-7.09-1.76,11.71,11.71,0,0,1-4.72-5,17.11,17.11,0,0,1-1.64-7.69q0-6.84,3.57-10.63t10-3.8a14,14,0,0,1,7.09,1.75,11.7,11.7,0,0,1,4.72,5A16.92,16.92,0,0,1,246.17,259.47Zm-19.29,0a11.66,11.66,0,0,0,1.36,6.26,4.85,4.85,0,0,0,4.43,2.12,4.79,4.79,0,0,0,4.38-2.1,11.9,11.9,0,0,0,1.33-6.28c0-2.76-.44-4.84-1.34-6.22a5.73,5.73,0,0,0-8.81,0Q226.88,255.3,226.88,259.47Z" style="fill:#6d6e71"/><path d="M268,245a12.27,12.27,0,0,1,2.57.23L270,252.4a8.94,8.94,0,0,0-2.24-.25,8.06,8.06,0,0,0-5.68,1.88,6.74,6.74,0,0,0-2,5.24v14.2h-7.61v-27.9h5.77l1.12,4.69h.37a10.46,10.46,0,0,1,3.51-3.78A8.61,8.61,0,0,1,268,245Z" style="fill:#6d6e71"/><path d="M304.53,245a12.27,12.27,0,0,1,2.57.23l-.58,7.13a8.94,8.94,0,0,0-2.24-.25A8.06,8.06,0,0,0,298.6,254a6.74,6.74,0,0,0-2,5.24v14.2H289v-27.9h5.77l1.12,4.69h.37a10.46,10.46,0,0,1,3.51-3.78A8.61,8.61,0,0,1,304.53,245Z" style="fill:#6d6e71"/><path d="M324.79,274q-6.74,0-10.53-3.72t-3.79-10.53q0-7,3.5-10.85t9.7-3.83q5.91,0,9.21,3.37t3.29,9.31v3.69h-18a7.29,7.29,0,0,0,1.92,5.07,6.74,6.74,0,0,0,5,1.82,20.94,20.94,0,0,0,4.77-.52,24.14,24.14,0,0,0,4.69-1.67V272a17.82,17.82,0,0,1-4.27,1.48A26.47,26.47,0,0,1,324.79,274Zm-1.07-23.51a4.83,4.83,0,0,0-3.79,1.53,7.15,7.15,0,0,0-1.58,4.36H329a6.4,6.4,0,0,0-1.48-4.36A5,5,0,0,0,323.72,250.46Z" style="fill:#6d6e71"/><path d="M360.09,273.47l-1.48-3.79h-.2a11.24,11.24,0,0,1-4,3.35,12.73,12.73,0,0,1-5.31.94,8.56,8.56,0,0,1-6.32-2.3,8.81,8.81,0,0,1-2.31-6.54c0-3,1-5.14,3.11-6.55s5.19-2.18,9.37-2.33l4.84-.15v-1.22q0-4.24-4.34-4.25a20,20,0,0,0-7.87,2l-2.52-5.14A22.72,22.72,0,0,1,353.8,245q5.61,0,8.61,2.45t3,7.44v18.59Zm-2.25-12.93-2.95.1a9.48,9.48,0,0,0-4.94,1.2,3.76,3.76,0,0,0-1.62,3.34q0,3.22,3.69,3.22a5.81,5.81,0,0,0,4.23-1.52,5.32,5.32,0,0,0,1.59-4Z" style="fill:#6d6e71"/><path d="M382.07,274a9.05,9.05,0,0,1-7.72-3.82q-2.81-3.82-2.81-10.58t2.86-10.7a9.28,9.28,0,0,1,7.87-3.83,9.13,9.13,0,0,1,8,4.09h.25a31.28,31.28,0,0,1-.57-5.56v-8.94h7.63v38.84h-5.84l-1.47-3.62H390A8.71,8.71,0,0,1,382.07,274Zm2.68-6.07a5.17,5.17,0,0,0,4.28-1.69c.9-1.13,1.4-3.06,1.48-5.77v-.82c0-3-.46-5.14-1.38-6.44a5.16,5.16,0,0,0-4.51-2,4.47,4.47,0,0,0-4,2.16,11.52,11.52,0,0,0-1.41,6.28q0,4.11,1.43,6.17A4.63,4.63,0,0,0,384.75,267.9Z" style="fill:#6d6e71"/><path d="M405.26,238.35q0-3.72,4.14-3.72t4.15,3.72a3.64,3.64,0,0,1-1,2.76,4.33,4.33,0,0,1-3.11,1Q405.26,242.1,405.26,238.35Zm7.94,35.12h-7.62v-27.9h7.62Z" style="fill:#6d6e71"/><path d="M446.94,273.47h-7.61v-16.3a7.89,7.89,0,0,0-1.07-4.53,3.91,3.91,0,0,0-3.42-1.51,5.13,5.13,0,0,0-4.62,2.14q-1.43,2.13-1.42,7.07v13.13h-7.62v-27.9H427l1,3.56h.43a8.09,8.09,0,0,1,3.51-3,11.9,11.9,0,0,1,5.07-1q4.88,0,7.39,2.63t2.52,7.6Z" style="fill:#6d6e71"/><path d="M479.06,245.57v3.86l-4.36,1.13a7.59,7.59,0,0,1,1.19,4.19,8.45,8.45,0,0,1-3.13,7q-3.13,2.5-8.7,2.51l-1.37-.08-1.12-.12a2.54,2.54,0,0,0-1.17,2c0,1.1,1.39,1.64,4.19,1.64h4.74c3.06,0,5.4.66,7,2a7,7,0,0,1,2.41,5.79,8.57,8.57,0,0,1-4.08,7.58q-4.08,2.7-11.72,2.7c-3.89,0-6.87-.68-8.92-2a6.46,6.46,0,0,1-3.08-5.71,6,6,0,0,1,1.57-4.22,9,9,0,0,1,4.62-2.42,5,5,0,0,1-2.05-1.63,4,4,0,0,1,.05-5.07,10.58,10.58,0,0,1,2.67-2.08,7.41,7.41,0,0,1-3.48-3A9.23,9.23,0,0,1,453,254.6a8.71,8.71,0,0,1,3-7.06q3-2.5,8.49-2.5a21.88,21.88,0,0,1,2.78.21c1.07.14,1.76.25,2.06.32Zm-21.53,31.84a2.74,2.74,0,0,0,1.51,2.47,8.26,8.26,0,0,0,4.23.9,15,15,0,0,0,6.41-1.12c1.55-.75,2.32-1.77,2.32-3.07a2.18,2.18,0,0,0-1.37-2.17,11.24,11.24,0,0,0-4.24-.6h-3.95a6,6,0,0,0-3.5,1A3,3,0,0,0,457.53,277.41Zm2.77-22.71a5.71,5.71,0,0,0,1,3.6,3.76,3.76,0,0,0,3.16,1.32,3.67,3.67,0,0,0,3.14-1.32,5.83,5.83,0,0,0,1-3.6q0-5-4.14-5C461.69,249.66,460.3,251.34,460.3,254.7Z" style="fill:#6d6e71"/></svg>